# xmcd
#
# Track frame offsets: 
#        150
#        17219
#        29653
#        47640
#        74236
#        96088
#        112959
#        132334
#        156391
#
# Disc length: 2305 seconds
#
# Revision: 0
# Processed by: cddbd v1.5.2PL0 Copyright (c) Steve Scherf et al.
# Submitted via: ExactAudioCopyFreeDBPlugin 1.0
#
DISCID=8108ff09
DTITLE=Bobby G - Smokey Mountain Blues
DYEAR=2005
DGENRE=Blues
TTITLE0=Bradenton (For Eddie E.)
TTITLE1=Smokey Mountain Blues
TTITLE2=Even Though Guys Get The Blues
TTITLE3=When I Don't Have You
TTITLE4=For Absent Friends
TTITLE5=You Crazy
TTITLE6=Alone With My Guitar
TTITLE7=Let It Out
TTITLE8=I'm Back
EXTD=
EXTT0=
EXTT1=
EXTT2=
EXTT3=
EXTT4=
EXTT5=
EXTT6=
EXTT7=
EXTT8=
PLAYORDER=
